<?xml version="1.0" encoding="UTF-8" standalone="no"?>
<!-- Created with Inkscape (http://www.inkscape.org/) -->

<svg
   width="42.489532mm"
   height="39.755451mm"
   viewBox="0 0 42.489533 39.755452"
   version="1.1"
   id="svg1"
   xml:space="preserve"
   inkscape:version="1.3.1 (9b9bdc1480, 2023-11-25, custom)"
   sodipodi:docname="etoile.svg"
   xmlns:inkscape="http://www.inkscape.org/namespaces/inkscape"
   xmlns:sodipodi="http://sodipodi.sourceforge.net/DTD/sodipodi-0.dtd"
   xmlns="http://www.w3.org/2000/svg"
   xmlns:svg="http://www.w3.org/2000/svg"><sodipodi:namedview
     id="namedview1"
     pagecolor="#ffffff"
     bordercolor="#000000"
     borderopacity="0.25"
     inkscape:showpageshadow="2"
     inkscape:pageopacity="0.0"
     inkscape:pagecheckerboard="0"
     inkscape:deskcolor="#d1d1d1"
     inkscape:document-units="mm"
     inkscape:zoom="0.7198092"
     inkscape:cx="609.88384"
     inkscape:cy="462.62259"
     inkscape:window-width="1854"
     inkscape:window-height="1011"
     inkscape:window-x="0"
     inkscape:window-y="0"
     inkscape:window-maximized="1"
     inkscape:current-layer="g1"><inkscape:page
       x="0"
       y="0"
       width="42.489532"
       height="39.755451"
       id="page1"
       margin="0"
       bleed="0" /></sodipodi:namedview><defs
     id="defs1" /><g
     inkscape:label="Calque 1"
     inkscape:groupmode="layer"
     id="layer1" /><g
     id="g1"
     inkscape:groupmode="layer"
     inkscape:label="1"
     transform="matrix(0.26458332,0,0,0.26458334,220.00001,0)"><g
       id="g3"
       transform="matrix(0.11906483,0,0,0.11906483,-850.79188,-177.46168)"><g
         id="g2"><path
           id="path4"
           d="M 874.74798,1633.2267 1020.4226,1928.4 1346.16,1975.72 c 22.9333,3.3333 32.0933,31.5333 15.4933,47.7067 l -235.7,229.76 55.6427,324.4133 c 3.9173,22.8533 -20.0614,40.2666 -40.5774,29.48 L 849.67065,2453.92 558.32132,2607.08 c -20.516,10.7866 -44.49467,-6.6267 -40.576,-29.48 l 55.64267,-324.4133 -235.70533,-229.76 c -16.59867,-16.1734 -7.44,-44.3734 15.49866,-47.7067 l 325.73733,-47.32 145.67466,-295.1733 c 10.25734,-20.7867 39.896,-20.7867 50.15467,0"
           style="fill:#eab22c;fill-opacity:1;fill-rule:nonzero;stroke:none;stroke-width:0.133333" /></g></g></g></svg>
