<svg xmlns="http://www.w3.org/2000/svg" width="180" height="50" fill="none"><path fill="#fff" d="M14.95 48.428 1.836 34.906c-2.029-2.096-2.029-5.49 0-7.587L14.95 13.798a5.1 5.1 0 0 1 7.359 0l13.117 13.521c2.03 2.097 2.03 5.49 0 7.587l-13.11 13.522a5.1 5.1 0 0 1-7.366 0Z"/><path fill="url(#a)" d="m2.789 28.301 13.114-13.525a3.78 3.78 0 0 1 2.716-1.16 3.78 3.78 0 0 1 2.716 1.16l13.114 13.525a4.017 4.017 0 0 1 1.126 2.799c0 1.05-.405 2.056-1.126 2.798L21.363 47.423a3.78 3.78 0 0 1-2.716 1.16 3.78 3.78 0 0 1-2.715-1.16L2.813 33.898c-1.498-1.525-1.52-4.01-.05-5.564l.025-.033Z"/><path fill="#fff" fill-rule="evenodd" d="M20.144 19.627c2.857 2.79-.537 9.6-1.587 10.091-1.102.285-7.912-2.863-7.347-6.817.292-2.232 2.87-2.483 3.803-2.574.173-.016.29-.028.324-.045.026-.012.082-.053.166-.113.66-.473 2.995-2.143 4.64-.542Zm9.174 7.408c-.01-.03-.017-.12-.029-.251-.077-.88-.324-3.688-2.51-3.982-1.651-.232-3.156.93-4.305 2.4l5.08 2.503-2.426 5.238c1.825.412 3.727.327 4.88-.956 1.454-1.686-.052-3.97-.546-4.719a1.795 1.795 0 0 1-.144-.233Zm-9.936 5.135c-1.05.491-4.445 7.306-1.588 10.091 1.676 1.633 4.063-.128 4.656-.565.063-.047.106-.079.126-.09.031-.017.147-.028.32-.045.93-.092 3.515-.346 3.806-2.573.588-3.977-6.193-7.113-7.32-6.818Zm-1.65-.815c-.477-1.083-7.087-4.582-9.788-1.637-1.59 1.734.134 4.207.552 4.807.043.062.072.104.083.123.017.033.029.155.046.339.09.963.339 3.616 2.493 3.916 3.857.573 6.886-6.422 6.613-7.558v.01Zm-4.433 11.898-1.352-1.394v-.01A7.462 7.462 0 0 0 15 38.039c.044.015.27.047.472.076.15.022.288.042.331.052a10.228 10.228 0 0 1-2.505 5.086Z" clip-rule="evenodd"/><path fill="#E1001A" d="m19.855 30.49 2.24-4.816 4.672 2.31-2.24 4.816-4.672-2.31Z"/><path fill="#A70000" d="m21.842 26.242.26-.558 4.671 2.31-.26.558-4.671-2.31Z"/><path fill="#A70000" d="m19.864 30.508 2.24-4.817.565.279-2.24 4.816-.564-.279Z"/><path fill="#fff" fill-rule="evenodd" d="M174.443 26.263c-.825 0-1.239.278-1.239.862l.002-.003c0 .768 1.026 1.187 2.262 1.69 1.869.762 4.217 1.72 4.217 4.377 0 2.357-2.301 4.522-5.356 4.535-2.416 0-4.277-.809-5.486-2.003l2.014-2.636a5.042 5.042 0 0 0 3.411 1.513c.762 0 1.523-.367 1.523-1.084 0-.698-.97-1.11-2.149-1.608-1.823-.771-4.144-1.753-4.144-4.333 0-2.048 1.448-4.19 5.143-4.19a7.731 7.731 0 0 1 4.825 1.629l-1.821 2.458c-.817-.615-2.247-1.207-3.202-1.207Zm-95.467 4.274c0-3.964 2.682-7.153 6.879-7.154 4.141 0 6.876 3.26 6.879 7.154 0 3.731-2.621 7.174-6.878 7.174-4.393 0-6.88-3.32-6.88-7.174Zm6.879-7.154h-.001.002-.001Zm-12.458.366c3.28 0 4.7 2.014 4.7 4.478 0 1.857-.822 3.13-2.102 3.915l2.834 5.237h-3.766l-2.238-4.635h-2.032v4.635h-3.43v-13.63h6.034Zm-26.464 8.178h4.937v-2.946h-4.937v-2.095h6.022v-3.123h-9.53v13.616h9.934v-3.121h-6.426v-2.33Zm15.274-.186c0 1.542-.645 2.559-2.159 2.559-1.56 0-2.182-1.048-2.182-2.559v-7.979h-3.51v8.322c0 3.006 1.804 5.661 5.71 5.661 4.162 0 5.691-3.074 5.691-5.66v-8.323h-3.555l.005 7.98Zm10.852-1.838h-2.263v-3.291h2.245c1.016 0 1.587.563 1.587 1.675a1.55 1.55 0 0 1-.43 1.175c-.3.309-.715.47-1.14.441Zm12.796 4.415c-1.858 0-3.252-1.454-3.252-3.781 0-2.273 1.354-3.781 3.253-3.781 2.116 0 3.249 1.796 3.249 3.78-.003 2.325-1.356 3.781-3.25 3.782Zm55.29-3.781c0-3.964 2.682-7.153 6.879-7.154 4.144 0 6.879 3.26 6.881 7.154 0 3.731-2.623 7.174-6.88 7.174-4.391 0-6.88-3.32-6.88-7.174Zm6.879-7.154h-.001.002-.001Zm0 10.935c-1.856 0-3.252-1.454-3.252-3.781 0-2.273 1.353-3.781 3.253-3.781 2.116 0 3.251 1.796 3.251 3.78-.003 2.325-1.361 3.781-3.252 3.782Zm-47.069-4.62 3.146-5.936h3.371l.622 13.617h-3.556l-.317-7.992-2.322 4.658h-1.925L97.4 29.387l-.254 7.992h-3.373l.615-13.616h3.352l3.216 5.936Zm8.66 7.68h3.51V23.763h-3.51V37.38Zm5.293-13.616h3.51v10.433h5.805v3.184h-9.315V23.763Zm14.141 0h-3.51V37.38h9.315v-3.184h-5.805V23.762Zm10.659 13.617h-3.51V23.763h3.51v13.616Zm24.739-6.023-5.08-7.594h-3.184V37.38h3.471v-7.822l5.273 7.822h2.994V23.763h-3.474v7.593Z" clip-rule="evenodd"/><path fill="#EEBB05" fill-rule="evenodd" d="m144.722 38.997 6.484 4.842v-4.373h2.783v10.076l-6.484-4.852v4.383h-2.783V38.997Zm-6.466.107c3.205 0 5.427 2.116 5.427 5.167 0 3.05-2.22 5.166-5.427 5.166-3.208 0-5.43-2.116-5.43-5.166 0-3.051 2.222-5.167 5.43-5.167Zm-59.853-.107v10.076H75.62V45.2l-2.291 2.174-2.294-2.174v3.873h-2.783V38.997l5.077 4.682 5.074-4.682Zm3.812.471 1.999 3.116 2.001-3.116h3.19l-3.817 5.952v3.653h-2.784V45.36l-3.779-5.892h3.19Zm21.918-.47v10.075h-2.784V45.2l-2.29 2.174-2.294-2.174v3.873h-2.784V38.997l5.077 4.682 5.075-4.682Zm4.774.47v9.605h-2.783v-9.605h2.783Zm5.049 0v7.188h4.64v2.417h-7.423v-9.605h2.783Zm8.78 0v7.188h4.64v2.417h-7.424v-9.605h2.784Zm8.823 0v9.605h-2.784v-9.605h2.784Zm6.697 2.281c-1.514 0-2.563 1.032-2.563 2.522 0 1.407.927 2.405 2.313 2.512l.25.01c1.513.013 2.572-1.032 2.572-2.522 0-1.49-1.059-2.522-2.572-2.522Z" clip-rule="evenodd"/><path fill="url(#b)" fill-rule="evenodd" d="M104.013 4.896 98.357.123c-.278-.229-.5-.13-.5.23l-.076 7.537a1.385 1.385 0 0 1-.544 1.01l-6.144 4.043c-.296.192-.265.446.066.563l6.902 2.41c.365.153.645.463.767.848l1.851 7.268c.098.34.334.399.542.11l4.367-6.014a1.318 1.318 0 0 1 1.016-.488l7.271.428c.349.02.471-.204.266-.497l-4.206-6.118a1.412 1.412 0 0 1-.138-1.145l2.647-7.023c.126-.337-.043-.522-.376-.415l-6.955 2.255a1.27 1.27 0 0 1-1.1-.23ZM86.459 15.694l-1.253-1.106c-.06-.053-.11-.028-.11.055l-.017 1.743a.324.324 0 0 1-.12.23l-1.362.934c-.067.046-.06.103.016.13l1.528.558a.302.302 0 0 1 .17.197l.41 1.681c.02.08.074.092.12.026l.967-1.393a.288.288 0 0 1 .222-.113l1.616.103c.078.005.104-.048.058-.117l-.931-1.413a.327.327 0 0 1-.032-.266l.587-1.625c.029-.077-.009-.12-.084-.096l-1.54.523a.276.276 0 0 1-.245-.05Zm-14.464-3.047 1.298 1.146a.287.287 0 0 0 .25.052l1.598-.538c.076-.028.116.018.087.098l-.609 1.68a.351.351 0 0 0 .034.275l.964 1.464c.047.07.02.124-.06.119l-1.669-.103a.301.301 0 0 0-.235.117l-1 1.439c-.047.068-.105.057-.125-.026l-.424-1.74a.32.32 0 0 0-.176-.203l-1.584-.577c-.078-.027-.085-.087-.016-.135l1.409-.967a.333.333 0 0 0 .127-.24l.017-1.804c0-.087.052-.112.114-.057Zm7.909-1.263-.87-.774c-.041-.037-.077-.018-.077.039l-.011 1.219a.231.231 0 0 1-.085.165l-.944.653c-.044.032-.04.073.011.092l1.062.391a.227.227 0 0 1 .116.136l.29 1.168c.014.057.052.064.083.018l.667-.973a.196.196 0 0 1 .155-.08l1.118.086c.053.005.074-.032.042-.08l-.648-.99a.235.235 0 0 1-.02-.185l.406-1.146c.02-.055-.007-.084-.058-.068l-1.069.366a.196.196 0 0 1-.168-.037ZM65.808 9.916l.789.703c.043.036.1.047.153.032l.96-.325c.047-.016.072 0 .054.062l-.37 1.03a.216.216 0 0 0 .019.168l.586.898c.03.044.011.078-.035.074l-1.016-.07a.184.184 0 0 0-.142.074l-.607.882c-.029.044-.064.035-.075-.016l-.258-1.067a.202.202 0 0 0-.107-.124l-.964-.355c-.045-.016-.05-.053 0-.083l.858-.593a.201.201 0 0 0 .075-.147l.011-1.106c0-.053.031-.07.07-.037Zm19.956-6.642-2.18-1.904c-.105-.09-.194-.049-.194.096l-.028 2.999a.55.55 0 0 1-.212.401L80.78 6.47c-.116.082-.103.183.024.229l2.666.96c.142.062.25.185.296.337l.713 2.891c.047.138.14.158.222.044l1.683-2.394a.505.505 0 0 1 .393-.195l2.796.172c.135.006.182-.08.104-.2L88.05 5.881a.574.574 0 0 1-.053-.458L89.02 2.63c.051-.135-.015-.209-.144-.165l-2.687.896a.482.482 0 0 1-.424-.087Z" clip-rule="evenodd"/><defs><linearGradient id="a" x1="34.97" x2=".858" y1="13.506" y2="13.506" gradientUnits="userSpaceOnUse"><stop stop-color="#00A0E1"/><stop offset=".01" stop-color="#009EDF"/><stop offset=".16" stop-color="#0381C6"/><stop offset=".33" stop-color="#0064AE"/><stop offset=".5" stop-color="#004E9B"/><stop offset=".71" stop-color="#004694"/><stop offset="1" stop-color="#004492"/></linearGradient><linearGradient id="b" x1="64.76" x2="114.241" y1="24.327" y2="24.327" gradientUnits="userSpaceOnUse"><stop stop-color="#EEBB05"/><stop offset="1" stop-color="#FFE267"/></linearGradient></defs></svg>